<?xml version="1.0" encoding="iso-8859-1"?>
<!-- Generator: Adobe Illustrator 19.0.0, SVG Export Plug-In . SVG Version: 6.00 Build 0)  -->
<svg version="1.1" id="Layer_1" xmlns="http://www.w3.org/2000/svg" xmlns:xlink="http://www.w3.org/1999/xlink" x="0px" y="0px"
	 viewBox="0 0 512.001 512.001" style="enable-background:new 0 0 512.001 512.001;" xml:space="preserve">
<g>
	<g>
		<g>
			<path d="M418.134,290.134h-102.4c-4.719,0-8.533,3.823-8.533,8.533v34.133c0,4.71,3.814,8.533,8.533,8.533h102.4
				c4.719,0,8.533-3.823,8.533-8.533v-34.133C426.667,293.957,422.853,290.134,418.134,290.134z M409.6,324.267h-85.333v-17.067
				H409.6V324.267z"/>
			<path d="M110.934,460.801H8.534c-4.719,0-8.533,3.823-8.533,8.533v34.133c0,4.71,3.814,8.533,8.533,8.533h102.4
				c4.719,0,8.533-3.823,8.533-8.533v-34.133C119.467,464.624,115.653,460.801,110.934,460.801z M102.4,494.934H17.067v-17.067
				H102.4V494.934z"/>
			<path d="M110.934,290.134H8.534c-4.719,0-8.533,3.823-8.533,8.533v34.133c0,4.71,3.814,8.533,8.533,8.533h102.4
				c4.719,0,8.533-3.823,8.533-8.533v-34.133C119.467,293.957,115.653,290.134,110.934,290.134z M102.4,324.267H17.067v-17.067
				H102.4V324.267z"/>
			<path d="M110.934,375.467H8.534c-4.719,0-8.533,3.823-8.533,8.533v34.133c0,4.71,3.814,8.533,8.533,8.533h102.4
				c4.719,0,8.533-3.823,8.533-8.533v-34.133C119.467,379.29,115.653,375.467,110.934,375.467z M102.4,409.601H17.067v-17.067H102.4
				V409.601z"/>
			<path d="M508.715,1.81c-2.074-1.621-4.779-2.193-7.313-1.553L364.869,34.39c-3.797,0.947-6.468,4.361-6.468,8.277v153.6
				c0,14.114-11.486,25.6-25.6,25.6c-14.114,0-25.6-11.486-25.6-25.6s11.486-25.6,25.6-25.6c4.719,0,8.533-3.823,8.533-8.533
				c0-4.71-3.814-8.533-8.533-8.533c-23.526,0-42.667,19.14-42.667,42.667c0,23.526,19.14,42.667,42.667,42.667
				c23.526,0,42.667-19.14,42.667-42.667V86.981l104.576-27.529c4.557-1.195,7.27-5.871,6.076-10.419
				c-1.203-4.565-5.871-7.27-10.428-6.084L375.467,69.325V49.332l119.467-29.867v142.669c0,14.114-11.486,25.6-25.6,25.6
				s-25.6-11.486-25.6-25.6s11.486-25.6,25.6-25.6c4.719,0,8.533-3.823,8.533-8.533c0-4.71-3.814-8.533-8.533-8.533
				c-23.526,0-42.667,19.14-42.667,42.667c0,23.526,19.14,42.667,42.667,42.667c23.526,0,42.667-19.14,42.667-42.667V8.534
				C512,5.906,510.789,3.422,508.715,1.81z"/>
			<path d="M264.534,204.801h-102.4c-4.719,0-8.533,3.823-8.533,8.533v34.133c0,4.71,3.814,8.533,8.533,8.533h102.4
				c4.719,0,8.533-3.823,8.533-8.533v-34.133C273.067,208.624,269.253,204.801,264.534,204.801z M256,238.934h-85.333v-17.067H256
				V238.934z"/>
			<path d="M264.534,290.134h-102.4c-4.719,0-8.533,3.823-8.533,8.533v34.133c0,4.71,3.814,8.533,8.533,8.533h102.4
				c4.719,0,8.533-3.823,8.533-8.533v-34.133C273.067,293.957,269.253,290.134,264.534,290.134z M256,324.267h-85.333v-17.067H256
				V324.267z"/>
			<path d="M418.134,460.801h-102.4c-4.719,0-8.533,3.823-8.533,8.533v34.133c0,4.71,3.814,8.533,8.533,8.533h102.4
				c4.719,0,8.533-3.823,8.533-8.533v-34.133C426.667,464.624,422.853,460.801,418.134,460.801z M409.6,494.934h-85.333v-17.067
				H409.6V494.934z"/>
			<path d="M110.934,204.801H8.534c-4.719,0-8.533,3.823-8.533,8.533v34.133c0,4.71,3.814,8.533,8.533,8.533h102.4
				c4.719,0,8.533-3.823,8.533-8.533v-34.133C119.467,208.624,115.653,204.801,110.934,204.801z M102.4,238.934H17.067v-17.067
				H102.4V238.934z"/>
			<path d="M264.534,119.467h-102.4c-4.719,0-8.533,3.823-8.533,8.533v34.133c0,4.71,3.814,8.533,8.533,8.533h102.4
				c4.719,0,8.533-3.823,8.533-8.533v-34.133C273.067,123.29,269.253,119.467,264.534,119.467z M256,153.601h-85.333v-17.067H256
				V153.601z"/>
			<path d="M264.534,375.467h-102.4c-4.719,0-8.533,3.823-8.533,8.533v34.133c0,4.71,3.814,8.533,8.533,8.533h102.4
				c4.719,0,8.533-3.823,8.533-8.533v-34.133C273.067,379.29,269.253,375.467,264.534,375.467z M256,409.601h-85.333v-17.067H256
				V409.601z"/>
			<path d="M418.134,375.467h-102.4c-4.719,0-8.533,3.823-8.533,8.533v34.133c0,4.71,3.814,8.533,8.533,8.533h102.4
				c4.719,0,8.533-3.823,8.533-8.533v-34.133C426.667,379.29,422.853,375.467,418.134,375.467z M409.6,409.601h-85.333v-17.067
				H409.6V409.601z"/>
			<path d="M264.534,460.801h-102.4c-4.719,0-8.533,3.823-8.533,8.533v34.133c0,4.71,3.814,8.533,8.533,8.533h102.4
				c4.719,0,8.533-3.823,8.533-8.533v-34.133C273.067,464.624,269.253,460.801,264.534,460.801z M256,494.934h-85.333v-17.067H256
				V494.934z"/>
		</g>
	</g>
</g>
<g>
</g>
<g>
</g>
<g>
</g>
<g>
</g>
<g>
</g>
<g>
</g>
<g>
</g>
<g>
</g>
<g>
</g>
<g>
</g>
<g>
</g>
<g>
</g>
<g>
</g>
<g>
</g>
<g>
</g>
</svg>
